<svg width="1024" height="1024" viewBox="0 0 1024 1024" fill="none" xmlns="http://www.w3.org/2000/svg">
<rect width="1024" height="1024" fill="#663399"/>
<path d="M908 0C919.046 0 928 8.95431 928 20V96H1004C1015.05 96 1024 104.954 1024 116C1024 127.046 1015.05 136 1004 136H928V1004C928 1015.05 919.046 1024 908 1024C896.954 1024 888 1015.05 888 1004V136H136V1004C136 1015.05 127.046 1024 116 1024C104.954 1024 96 1015.05 96 1004V136H20C8.95431 136 0 127.046 0 116C0 104.954 8.95431 96 20 96H96V20C96 8.95431 104.954 0 116 0C127.046 0 136 8.95431 136 20V96H888V20C888 8.95431 896.954 0 908 0ZM699.544 176.933C710.024 164.344 729.666 177.785 721.728 192.113L614.22 386.15L571.959 473.208C567.214 482.983 565.927 494.079 568.306 504.681L650.94 872.911C654.311 887.93 632.838 894.578 627.134 880.281L514.322 597.564C513.485 595.467 510.515 595.467 509.678 597.564L396.866 880.281C391.162 894.577 369.69 887.931 373.06 872.912L455.732 504.51C458.087 494.018 456.813 483.038 452.117 473.365L409.779 386.15L302.272 192.113C294.334 177.785 313.976 164.344 324.456 176.933L410.966 280.85C412.788 283.038 414.889 284.978 417.217 286.619L484.631 334.146C501.043 345.716 522.957 345.716 539.369 334.146L606.783 286.619C609.111 284.978 611.212 283.038 613.034 280.85L699.544 176.933ZM511.5 202C539.114 202 557 224.386 557 252C557 279.614 539.114 312 511.5 312C483.886 312 466 279.614 466 252C466 224.386 483.886 202 511.5 202Z" fill="white"/>
</svg>
